<svg width="24" height="24" viewBox="0 0 24 24" fill="none" xmlns="http://www.w3.org/2000/svg">
<path fill-rule="evenodd" clip-rule="evenodd" d="M20.5301 3.78C20.5501 3.84 20.5601 3.89 20.5601 3.95V4V8.65C20.5601 8.96 20.3101 9.21 20.0001 9.21C19.6901 9.21 19.4401 8.96 19.4401 8.65V5.36L14.4201 10.38C14.3101 10.5 14.1701 10.55 14.0201 10.55C13.8701 10.55 13.7301 10.49 13.6201 10.38C13.4001 10.16 13.4001 9.8 13.6201 9.58L18.6401 4.56H15.3401C15.0301 4.56 14.7801 4.31 14.7801 4C14.7801 3.69 15.0301 3.44 15.3401 3.44H20.0001C20.0701 3.44 20.1501 3.45 20.2301 3.47C20.279 3.4863 20.3146 3.51589 20.3532 3.54794C20.3619 3.55521 20.3708 3.56261 20.3801 3.57C20.3851 3.575 20.3901 3.5775 20.3951 3.58C20.4001 3.5825 20.4051 3.585 20.4101 3.59C20.4101 3.6 20.4201 3.61 20.4201 3.61C20.4601 3.66 20.5001 3.72 20.5301 3.78ZM9.74005 18.76C12.02 20.34 14.39 21.14 16.78 21.14C17.59 21.14 18.3601 20.82 18.9401 20.24C19.57 19.61 20.06 18.43 20.06 17.54V16.89C20.06 16.12 19.6301 15.41 18.9501 15.04L15.7 13.29C15.13 12.98 14.44 12.97 13.86 13.26L13.34 13.52C13.11 13.64 12.9 13.79 12.71 13.98L12.27 14.43C11.87 14.24 11.27 13.88 10.67 13.28C10.06 12.68 9.71005 12.08 9.52005 11.68L9.96005 11.24C10.15 11.06 10.3 10.85 10.42 10.61L10.68 10.09C10.97 9.51002 10.96 8.82002 10.65 8.25002L8.90005 5.00002C8.54005 4.32002 7.83005 3.90002 7.06005 3.90002H6.41005C5.52005 3.90002 4.33005 4.39002 3.70005 5.01002C3.12005 5.59002 2.80005 6.35002 2.80005 7.17002C2.80005 9.56002 3.61005 11.93 5.19005 14.21C5.70005 14.94 6.31005 15.66 7.13005 16.48L7.46005 16.81C8.28005 17.63 9.00005 18.25 9.74005 18.76ZM8.32005 15.97L7.99005 15.64C7.22005 14.87 6.65005 14.21 6.18005 13.53C4.74005 11.45 4.01005 9.31002 4.01005 7.17002C4.01005 6.68002 4.20005 6.21002 4.56005 5.86002C4.97005 5.45002 5.83005 5.09002 6.41005 5.09002H7.05005C7.38005 5.09002 7.69005 5.28002 7.85005 5.57002L9.59005 8.81002C9.71005 9.04002 9.72005 9.32002 9.60005 9.55002L9.36005 10.08C9.30005 10.2 9.22005 10.31 9.13005 10.4L8.69005 10.84C8.32005 11.21 8.23005 11.76 8.45005 12.22C8.68005 12.7 9.11005 13.42 9.83005 14.14C10.55 14.86 11.27 15.29 11.75 15.52C12.21 15.74 12.77 15.65 13.13 15.28L13.57 14.84C13.66 14.75 13.77 14.67 13.89 14.61L14.41 14.35C14.65 14.23 14.92 14.24 15.15 14.36L18.4 16.11C18.69 16.26 18.8701 16.57 18.8701 16.9V17.55C18.8701 18.13 18.51 18.99 18.1 19.4C17.75 19.75 17.2901 19.94 16.7901 19.94C14.64 19.94 12.5 19.21 10.43 17.77C9.75005 17.31 9.08005 16.73 8.32005 15.97Z" fill="#141415"/>
</svg>
