<svg width="24" height="24" viewBox="0 0 24 24" fill="none" xmlns="http://www.w3.org/2000/svg">
<path fill-rule="evenodd" clip-rule="evenodd" d="M3.56252 3.05625C3.8939 3.05625 4.16252 3.32488 4.16252 3.65625V6.25C4.16252 6.58137 3.8939 6.85 3.56252 6.85C3.23115 6.85 2.96252 6.58137 2.96252 6.25V3.65625C2.96252 3.32488 3.23115 3.05625 3.56252 3.05625Z" fill="#141415"/>
<path fill-rule="evenodd" clip-rule="evenodd" d="M3.56252 17.1812C3.8939 17.1812 4.16252 17.4499 4.16252 17.7812V20.375C4.16252 20.7064 3.8939 20.975 3.56252 20.975C3.23115 20.975 2.96252 20.7064 2.96252 20.375V17.7812C2.96252 17.4499 3.23115 17.1812 3.56252 17.1812Z" fill="#141415"/>
<path fill-rule="evenodd" clip-rule="evenodd" d="M3.56252 8.025C3.8939 8.025 4.16252 8.29363 4.16252 8.625V15.4688C4.16252 15.8001 3.8939 16.0687 3.56252 16.0687C3.23115 16.0687 2.96252 15.8001 2.96252 15.4688V8.625C2.96252 8.29363 3.23115 8.025 3.56252 8.025Z" fill="#141415"/>
<path fill-rule="evenodd" clip-rule="evenodd" d="M6.56252 3C6.14248 2.99996 5.93245 2.99993 5.77201 3.08166C5.63089 3.15356 5.51615 3.26829 5.44424 3.4094C5.36249 3.56983 5.36249 3.77986 5.36249 4.19991V19.8001C5.36249 20.2201 5.36249 20.4301 5.44423 20.5905C5.51613 20.7316 5.63085 20.8464 5.77196 20.9183C5.93238 21 6.14238 21 6.56239 21H15.9998C17.3998 21 18.0998 21 18.6345 20.7275C19.1049 20.4879 19.4873 20.1055 19.727 19.6351C19.9994 19.1004 19.9994 18.4003 19.9994 17.0003V7.00069C19.9994 5.60082 19.9994 4.90087 19.727 4.36617C19.4874 3.89583 19.105 3.51341 18.6347 3.27373C18.1 3.00125 17.4001 3.00117 16.0002 3.00101L6.56252 3ZM6.56241 4C6.48501 3.99999 6.42007 4 6.36293 4.00042C6.3625 4.05756 6.36249 4.1225 6.36249 4.19991V19.8001C6.36249 19.8775 6.3625 19.9424 6.36293 19.9996C6.42006 20 6.485 20 6.56239 20H15.9998C16.7163 20 17.1935 19.9992 17.5602 19.9693C17.9152 19.9403 18.0776 19.889 18.1805 19.8365C18.4627 19.6927 18.6922 19.4633 18.836 19.1811C18.8884 19.0782 18.9397 18.9158 18.9687 18.5608C18.9987 18.1941 18.9994 17.7168 18.9994 17.0003V7.00069C18.9994 6.28425 18.9987 5.80706 18.9687 5.44042C18.9397 5.08545 18.8884 4.92302 18.836 4.82013C18.6922 4.53794 18.4628 4.3085 18.1806 4.1647C18.0777 4.11226 17.9153 4.06096 17.5604 4.03192C17.1937 4.00192 16.7165 4.00109 16.0001 4.00101L6.56241 4Z" fill="#141415"/>
<path d="M14.6852 9.33295C14.6852 8.16647 14.1081 7 12.6687 7C11.2292 7 10.6522 8.16647 10.6522 9.33295C10.6522 11.0827 11.5146 11.9637 12.6687 11.9637C13.8227 11.9637 14.6852 11.0889 14.6852 9.33295Z" fill="#141415"/>
<path d="M9.5338 14.2164L9.3655 14.351C8.77758 14.8214 8.37433 15.4839 8.22667 16.2222C8.1462 16.6246 8.45396 17 8.86429 17H16.4976C16.908 17 17.2157 16.6246 17.1353 16.2222C16.9876 15.4839 16.5844 14.8214 15.9964 14.351L15.8281 14.2164C15.2776 13.7759 14.6151 13.4977 13.9151 13.413L13.3689 13.3469C12.912 13.2916 12.45 13.2916 11.993 13.3469L11.4468 13.413C10.7469 13.4977 10.0844 13.7759 9.5338 14.2164Z" fill="#141415"/>
</svg>
