<svg width="24" height="24" viewBox="0 0 24 24" fill="none" xmlns="http://www.w3.org/2000/svg">
<path fill-rule="evenodd" clip-rule="evenodd" d="M8.91003 3.56002C8.91003 2.617 9.71123 1.90002 10.64 1.90002H13.36C14.2715 1.90002 15.09 2.6001 15.09 3.56002V4.40002H19.5C19.8314 4.40002 20.1 4.66865 20.1 5.00002C20.1 5.3314 19.8314 5.60002 19.5 5.60002H4.50002C4.16865 5.60002 3.90002 5.3314 3.90002 5.00002C3.90002 4.66865 4.16865 4.40002 4.50002 4.40002H8.91003V3.56002ZM13.89 3.56002V4.40002H10.11V3.56002C10.11 3.34305 10.3088 3.10002 10.64 3.10002H13.36C13.6886 3.10002 13.89 3.33995 13.89 3.56002ZM6.53857 7.95794C6.51532 7.62739 6.2285 7.37827 5.89795 7.40153C5.56739 7.42478 5.31828 7.7116 5.34153 8.04215L6.13014 19.2523C6.1421 20.8367 7.42952 22.1 9.01005 22.1H14.9201C16.5022 22.1 17.7879 20.8252 17.8 19.2523L18.5886 8.04215C18.6118 7.7116 18.3627 7.42478 18.0322 7.40153C17.7016 7.37827 17.4148 7.62739 17.3915 7.95795L16.6015 19.1879C16.6005 19.202 16.6001 19.216 16.6001 19.23C16.6001 20.147 15.8504 20.9 14.9201 20.9H9.01005C8.07798 20.9 7.33005 20.1552 7.33005 19.23C7.33005 19.216 7.32956 19.202 7.32857 19.1879L6.53857 7.95794Z" fill="#141415"/>
</svg>
