<svg width="24" height="24" viewBox="0 0 24 24" fill="none" xmlns="http://www.w3.org/2000/svg">
<path fill-rule="evenodd" clip-rule="evenodd" d="M16.147 7C16.2626 7 16.3729 7.02302 16.4735 7.06473C16.5741 7.10636 16.6684 7.16806 16.7501 7.24985C16.8319 7.33164 16.8936 7.4259 16.9353 7.52651C16.977 7.62709 17 7.73738 17 7.85304V13.131C17 13.6021 16.6181 13.984 16.147 13.984C15.6758 13.984 15.2939 13.6021 15.2939 13.131V9.91248L8.45624 16.7501C8.1231 17.0833 7.58299 17.0833 7.24985 16.7501C6.91672 16.417 6.91672 15.8769 7.24985 15.5438L14.0875 8.70609H10.869C10.3979 8.70609 10.016 8.32417 10.016 7.85304C10.016 7.38192 10.3979 7 10.869 7H16.147Z" fill="#141415"/>
</svg>
