<svg width="24" height="24" viewBox="0 0 24 24" fill="none" xmlns="http://www.w3.org/2000/svg">
<path fill-rule="evenodd" clip-rule="evenodd" d="M4.60002 9.50002C4.60002 7.92014 5.84254 6.60002 7.50002 6.60002C9.02929 6.60002 10.227 7.80001 10.403 9.55973C10.8744 14.2739 8.16163 17.2656 5.00026 17.8084C4.89983 17.8248 4.80998 17.7947 4.73539 17.7248C4.65611 17.6505 4.60002 17.5338 4.60002 17.4V16.7C4.60002 16.6451 4.62345 16.562 4.68084 16.4791C4.70779 16.4401 4.73635 16.4101 4.76078 16.39C4.77874 16.3753 4.78976 16.3697 4.79191 16.3686L4.79218 16.3684C4.80251 16.3649 4.81274 16.3612 4.82286 16.3571C5.33675 16.1516 6.12415 15.802 6.79133 15.2877C7.44903 14.7807 8.10002 14.0258 8.10002 13C8.10002 12.6687 7.8314 12.4 7.50002 12.4C5.84254 12.4 4.60002 11.0799 4.60002 9.50002ZM7.50002 5.40002C5.15751 5.40002 3.40002 7.27991 3.40002 9.50002C3.40002 11.4824 4.80128 13.1935 6.76909 13.5373C6.63238 13.8144 6.3913 14.081 6.05872 14.3373C5.53069 14.7443 4.87522 15.0431 4.39036 15.2377C4.09314 15.3428 3.85419 15.5649 3.69421 15.796C3.5266 16.0381 3.40002 16.355 3.40002 16.7V17.4C3.40002 18.3072 4.17284 19.1628 5.19866 18.9919L5.2014 18.9914C9.03934 18.3335 12.1256 14.7254 11.597 9.44032C11.373 7.20004 9.77076 5.40002 7.50002 5.40002ZM14.6 9.50002C14.6 7.92014 15.8425 6.60002 17.5 6.60002C19.0293 6.60002 20.227 7.80001 20.403 9.55973C20.8744 14.2739 18.1616 17.2656 15.0003 17.8084C14.8998 17.8248 14.81 17.7947 14.7354 17.7248C14.6561 17.6505 14.6 17.5338 14.6 17.4V16.7C14.6 16.6451 14.6234 16.562 14.6808 16.4791C14.7078 16.4401 14.7364 16.4101 14.7608 16.39C14.7797 16.3745 14.7909 16.3691 14.7922 16.3684C14.8025 16.3649 14.8127 16.3612 14.8229 16.3571C15.3367 16.1516 16.1242 15.802 16.7913 15.2877C17.449 14.7807 18.1 14.0258 18.1 13C18.1 12.6687 17.8314 12.4 17.5 12.4C15.8425 12.4 14.6 11.0799 14.6 9.50002ZM17.5 5.40002C15.1575 5.40002 13.4 7.27991 13.4 9.50002C13.4 11.4824 14.8013 13.1935 16.7691 13.5373C16.6324 13.8144 16.3913 14.081 16.0587 14.3373C15.5307 14.7443 14.8752 15.0431 14.3904 15.2377C14.0931 15.3428 13.8542 15.5649 13.6942 15.796C13.5266 16.0381 13.4 16.355 13.4 16.7V17.4C13.4 18.3072 14.1728 19.1628 15.1987 18.9919L15.2014 18.9914C19.0393 18.3335 22.1256 14.7254 21.597 9.44032C21.373 7.20004 19.7708 5.40002 17.5 5.40002Z" fill="#141415"/>
</svg>
