<svg width="32" height="32" viewBox="0 0 32 32" fill="none" xmlns="http://www.w3.org/2000/svg">
<path fill-rule="evenodd" clip-rule="evenodd" d="M4.6656 6.91554C6.41797 4.37861 9.81531 3 16 3C22.1792 3 25.5787 4.34629 27.333 6.86905C28.1948 8.10832 28.6029 9.55769 28.8025 11.0922C29 12.6101 29 14.2746 29 15.9682V16C29 17.7122 28.9822 19.3885 28.7584 20.92C28.5336 22.4576 28.0944 23.9035 27.2145 25.1383C25.4251 27.6494 22.0374 29 16 29C9.9571 29 6.57151 27.6171 4.78404 25.0918C3.90558 23.8507 3.46652 22.4023 3.24171 20.8704C3.01777 19.3443 3 17.6829 3 16L3 15.9688V15.9688C2.99999 14.3042 2.99999 12.6543 3.19752 11.1418C3.39721 9.61287 3.80522 8.16114 4.6656 6.91554ZM4.73998 11.3433C4.55681 12.7458 4.55556 14.3001 4.55556 16C4.55556 17.6922 4.57556 19.2461 4.78078 20.6445C4.98513 22.037 5.36663 23.2224 6.05372 24.1931C7.39735 26.0913 10.1229 27.4444 16 27.4444C21.8826 27.4444 24.6061 26.1183 25.9477 24.2355C26.6334 23.2733 27.0148 22.093 27.2192 20.695C27.4244 19.2909 27.4444 17.7222 27.4444 16C27.4444 14.2702 27.4432 12.7011 27.26 11.2929C27.0777 9.89173 26.7219 8.71484 26.0559 7.75716C24.7547 5.88599 22.043 4.55555 16 4.55555C9.96247 4.55555 7.24869 5.91298 5.94551 7.79963C5.27812 8.76582 4.92224 9.94775 4.73998 11.3433ZM17.0776 21.1744L17.2059 21.527C17.5312 22.4208 18.5195 22.8816 19.4133 22.5563C20.3071 22.231 20.7679 21.2427 20.4426 20.3489L20.3867 20.1954C19.4347 20.7382 18.3254 21.0598 17.0776 21.1744ZM15.4349 21.2095L15.7442 22.059C16.3633 23.7601 18.2442 24.6372 19.9453 24.0181C21.6464 23.3989 22.5235 21.518 21.9044 19.8169L21.6873 19.2206C21.8489 19.0641 22.0036 18.8981 22.1511 18.7225C22.4274 18.3936 22.3847 17.903 22.0558 17.6267C21.7269 17.3504 21.2363 17.393 20.96 17.7219C19.9017 18.9818 18.2967 19.6667 16 19.6667C13.7033 19.6667 12.0983 18.9818 11.04 17.7219C10.7637 17.393 10.2731 17.3504 9.94417 17.6267C9.61526 17.903 9.57261 18.3936 9.84891 18.7225C11.1753 20.3015 13.0759 21.1012 15.4349 21.2095ZM21.2778 14.8889C22.0448 14.8889 22.6667 13.894 22.6667 12.6667C22.6667 11.4394 22.0448 10.4444 21.2778 10.4444C20.5107 10.4444 19.8889 11.4394 19.8889 12.6667C19.8889 13.894 20.5107 14.8889 21.2778 14.8889ZM12.1111 12.6667C12.1111 13.894 11.4893 14.8889 10.7222 14.8889C9.95516 14.8889 9.33333 13.894 9.33333 12.6667C9.33333 11.4394 9.95516 10.4444 10.7222 10.4444C11.4893 10.4444 12.1111 11.4394 12.1111 12.6667Z" fill="#141415"/>
</svg>
