<svg width="24" height="24" viewBox="0 0 24 24" fill="none" xmlns="http://www.w3.org/2000/svg">
<path fill-rule="evenodd" clip-rule="evenodd" d="M17.9126 3.61388C17.6002 3.30146 17.0936 3.30146 16.7812 3.61389L15.3671 5.02807L17.347 7.00797L18.7611 5.59377C19.0735 5.28135 19.0735 4.77482 18.7611 4.46241L17.9126 3.61388ZM14.0943 4.60388L14.0859 4.61241L5.79526 12.903C5.46594 13.2324 5.21781 13.6338 5.07053 14.0757L3.83549 17.7808C3.76363 17.9964 3.81974 18.2341 3.98044 18.3948C4.14114 18.5555 4.37884 18.6116 4.59444 18.5398L8.29958 17.3047C8.74142 17.1574 9.14289 16.9093 9.47222 16.58L17.7714 8.28085L17.7797 8.27238L19.6097 6.44228C20.3907 5.66122 20.3907 4.39492 19.6097 3.61388L18.7611 2.76535C17.9801 1.98429 16.7137 1.98431 15.9327 2.76538L14.0943 4.60388ZM6.64379 13.7516L14.5186 5.87674L16.4985 7.85664L8.62369 15.7315C8.4261 15.9291 8.18521 16.0779 7.92011 16.1663L5.35338 17.0219L6.20895 14.4551C6.29732 14.19 6.4462 13.9492 6.64379 13.7516ZM4.49081 20.808C4.15944 20.808 3.89081 21.0766 3.89081 21.408C3.89081 21.7394 4.15944 22.008 4.49081 22.008L19.4866 22.008C19.818 22.008 20.0866 21.7394 20.0866 21.408C20.0866 21.0766 19.818 20.808 19.4866 20.808L4.49081 20.808Z" fill="#141415"/>
</svg>
