<svg width="24" height="24" viewBox="0 0 24 24" fill="none" xmlns="http://www.w3.org/2000/svg">
<path fill-rule="evenodd" clip-rule="evenodd" d="M20.3891 3.11092C20.6234 3.34523 20.6234 3.72513 20.3891 3.95944L17.9287 6.41983V8.19348L19.3598 6.96399C20.3973 6.0726 22.0025 6.80974 22.0025 8.17759V15.8225C22.0025 17.1903 20.3973 17.9274 19.3598 17.0361L17.9287 15.8066V16.9996C17.9287 18.6565 16.5856 19.9996 14.9287 19.9996H4.34896L2.92429 21.4243C2.68997 21.6586 2.31007 21.6586 2.07576 21.4243C1.84145 21.19 1.84145 20.8101 2.07576 20.5758L19.5406 3.11092C19.7749 2.8766 20.1548 2.8766 20.3891 3.11092ZM5.54897 18.7996H14.9287C15.9229 18.7996 16.7287 17.9937 16.7287 16.9996V14.5C16.7287 14.2656 16.8653 14.0526 17.0784 13.9548C17.2914 13.8569 17.5419 13.8921 17.7198 14.0449L20.1418 16.1259C20.4012 16.3487 20.8025 16.1644 20.8025 15.8225V8.17759C20.8025 7.83563 20.4012 7.65134 20.1418 7.87419L17.7198 9.95512C17.5419 10.1079 17.2914 10.1431 17.0784 10.0453C16.8653 9.94744 16.7287 9.73447 16.7287 9.50002V7.61983L5.54897 18.7996ZM4.99768 5.20037C4.00357 5.20037 3.19768 6.00625 3.19768 7.00037V17C3.19768 17.3314 2.92905 17.6 2.59768 17.6C2.26631 17.6 1.99768 17.3314 1.99768 17V7.00037C1.99768 5.34351 3.34083 4.00037 4.99768 4.00037H15C15.3314 4.00037 15.6 4.269 15.6 4.60037C15.6 4.93174 15.3314 5.20037 15 5.20037H4.99768Z" fill="#141415"/>
</svg>
