<svg width="24" height="24" viewBox="0 0 24 24" fill="none" xmlns="http://www.w3.org/2000/svg">
<path fill-rule="evenodd" clip-rule="evenodd" d="M4.99768 5.20037C4.00357 5.20037 3.19768 6.00625 3.19768 7.00036V16.9996C3.19768 17.9937 4.00357 18.7996 4.99768 18.7996H14.9288C15.9229 18.7996 16.7288 17.9937 16.7288 16.9996V14.5C16.7288 14.2656 16.8653 14.0526 17.0784 13.9548C17.2914 13.8569 17.5419 13.8921 17.7198 14.0449L20.1418 16.1259C20.4012 16.3487 20.8025 16.1644 20.8025 15.8225V8.17759C20.8025 7.83563 20.4012 7.65134 20.1418 7.87419L17.7198 9.95512C17.5419 10.1079 17.2914 10.1431 17.0784 10.0453C16.8653 9.94744 16.7288 9.73447 16.7288 9.50002V7.00037C16.7288 6.00625 15.9229 5.20037 14.9288 5.20037H4.99768ZM1.99768 7.00036C1.99768 5.34351 3.34083 4.00037 4.99768 4.00037H14.9288C16.5856 4.00037 17.9288 5.34351 17.9288 7.00037V8.19348L19.3598 6.964C20.3973 6.07261 22.0025 6.80975 22.0025 8.17759V15.8225C22.0025 17.1903 20.3973 17.9274 19.3598 17.0361L17.9288 15.8066V16.9996C17.9288 18.6565 16.5856 19.9996 14.9288 19.9996H4.99768C3.34083 19.9996 1.99768 18.6565 1.99768 16.9996V7.00036Z" fill="#141415"/>
</svg>
