<svg width="20" height="16" viewBox="0 0 20 16" fill="none" xmlns="http://www.w3.org/2000/svg">
<path fill-rule="evenodd" clip-rule="evenodd" d="M2.99768 1.20037C2.00357 1.20037 1.19768 2.00625 1.19768 3.00036V12.9996C1.19768 13.9937 2.00357 14.7996 2.99768 14.7996H12.9288C13.9229 14.7996 14.7288 13.9937 14.7288 12.9996V10.5C14.7288 10.2656 14.8653 10.0526 15.0784 9.95477C15.2914 9.85693 15.5419 9.89214 15.7198 10.0449L18.1418 12.1259C18.4012 12.3487 18.8025 12.1644 18.8025 11.8225V4.17759C18.8025 3.83563 18.4012 3.65134 18.1418 3.87419L15.7198 5.95512C15.5419 6.1079 15.2914 6.14312 15.0784 6.04528C14.8653 5.94744 14.7288 5.73447 14.7288 5.50002V3.00037C14.7288 2.00625 13.9229 1.20037 12.9288 1.20037H2.99768ZM-0.00231934 3.00036C-0.00231934 1.34351 1.34083 0.000366211 2.99768 0.000366211H12.9288C14.5856 0.000366211 15.9288 1.34351 15.9288 3.00037V4.19348L17.3598 2.964C18.3973 2.07261 20.0025 2.80975 20.0025 4.17759V11.8225C20.0025 13.1903 18.3973 13.9274 17.3598 13.0361L15.9288 11.8066V12.9996C15.9288 14.6565 14.5856 15.9996 12.9288 15.9996H2.99768C1.34083 15.9996 -0.00231934 14.6565 -0.00231934 12.9996V3.00036Z" fill="#FF0000"/>
</svg>
